<svg id="Camada_1" data-name="Camada 1" xmlns="http://www.w3.org/2000/svg" viewBox="0 0 468.34 49.21"><title>clientes-hupchat</title><path d="M133.92,9.57A7.41,7.41,0,0,1,130.54,16c-.23.15-.52.26-.64.46-.21.37-.52.87-.41,1.17s.67.51,1.07.61a2.1,2.1,0,0,0,.94-.13c1.88-.44,3.75-.9,5.63-1.32a2.68,2.68,0,0,1,3.41,2.16c.13.51.26,1,.37,1.53a2.72,2.72,0,0,1-2.19,3.48l-5.19,1.25a8.19,8.19,0,0,0-.85.23,1.84,1.84,0,0,0-1,3c.64.94,1.39,1.8,2.1,2.69,1.43,1.78,2.87,3.55,4.29,5.33a2.8,2.8,0,0,1-.45,4.35c-.36.3-.71.6-1.08.89a2.73,2.73,0,0,1-4-.43c-1.38-1.66-2.73-3.35-4.1-5-.24-.29-.47-.59-.73-.88-.86-1-1.57-1-2.41,0s-1.75,2.13-2.61,3.19c-.69.84-1.37,1.68-2.06,2.51-1.35,1.64-2.81,1.78-4.47.42-.32-.25-.64-.51-.95-.78a2.75,2.75,0,0,1-.43-4.1c2-2.5,4-5,6-7.45.14-.18.29-.36.43-.56,1-1.39.52-2.74-1.11-3.19s-3.46-.85-5.19-1.27a12.29,12.29,0,0,1-1.19-.32,2.42,2.42,0,0,1-1.76-2.46,10.78,10.78,0,0,1,.8-3.29,2.44,2.44,0,0,1,2.88-1.3c1.94.42,3.87.91,5.81,1.34.71.15,1.57.56,2-.37s-.46-1.32-1.06-1.72a7.52,7.52,0,0,1-3-8.62,7.5,7.5,0,0,1,14.42.93C133.86,8.72,133.88,9.19,133.92,9.57Z" style="fill:#c1ccd6"/><path d="M107.48,28.85A13.51,13.51,0,1,1,93.93,15.37,13.45,13.45,0,0,1,107.48,28.85ZM94,34.27a5.4,5.4,0,1,0-5.43-5.37A5.42,5.42,0,0,0,94,34.27Z" style="fill:#c1ccd6"/><path d="M15.64,31c1.61-3.22,3.11-6.23,4.61-9.25.75-1.49,1.48-3,2.23-4.48A3.11,3.11,0,0,1,27,15.68c.75.32,1.5.65,2.24,1,2,.92,2.57,2.56,1.47,4.52-1.9,3.43-3.84,6.84-5.76,10.25-1.61,2.85-3.23,5.69-4.82,8.55a3.81,3.81,0,0,1-3.67,2.14c-.54,0-1.09,0-1.63,0A3.83,3.83,0,0,1,11.14,40Q5.92,30.67.65,21.37c-1.24-2.2-.71-3.75,1.58-4.78l2.06-.91a3.1,3.1,0,0,1,4.49,1.61L15,29.84C15.18,30.17,15.36,30.49,15.64,31Z" style="fill:#c1ccd6"/><path d="M63.4,31,68,21.87c.77-1.55,1.53-3.12,2.31-4.67a3.1,3.1,0,0,1,4.36-1.57c.85.37,1.69.74,2.52,1.13a2.84,2.84,0,0,1,1.44,4.16c-.64,1.24-1.35,2.44-2,3.66Q72.21,32.28,67.88,40a3.84,3.84,0,0,1-3.67,2.14q-.76,0-1.53,0a3.91,3.91,0,0,1-3.82-2.23c-3.44-6.16-6.93-12.29-10.39-18.44-1.31-2.32-.8-3.83,1.62-4.91L52,15.72c2.11-.93,3.62-.39,4.64,1.66l6.18,12.45C62.94,30.17,63.12,30.49,63.4,31Z" style="fill:#c1ccd6"/><path d="M35,28.79V19.18a3.2,3.2,0,0,1,3.54-3.55c.79,0,1.57,0,2.35,0a3.18,3.18,0,0,1,3.29,3.31q0,9.91,0,19.83a3.19,3.19,0,0,1-3.25,3.35c-.92,0-1.84,0-2.76,0A3.12,3.12,0,0,1,35,38.81C34.94,35.47,35,32.13,35,28.79Z" style="fill:#c1ccd6"/><path d="M44.76,7.56A5.27,5.27,0,1,1,39.5,2.31,5.27,5.27,0,0,1,44.76,7.56Z" style="fill:#c1ccd6"/><path d="M417.86,47.34a37.12,37.12,0,0,1-5.53-4.8c-.28-.29-.4-.48-.18-.92a4,4,0,0,0-.57-4.5c-.59-.76-.7-.74-1.15.15a7.68,7.68,0,0,0-.49,1.42,7,7,0,0,0,.22,2.68,4.78,4.78,0,0,0-4-1.11c-.85.12-.89.21-.48.92a4,4,0,0,0,4.66,2,.65.65,0,0,1,.73.21,43.68,43.68,0,0,0,6.29,5.47c.12.09.39.12.22.38h.68c-.23-.07-.12-.23,0-.31C419,48.16,418.5,47.8,417.86,47.34Z" style="fill:#c1ccd6"/><path d="M399.16,16.82a.21.21,0,0,1,.11.12,3.81,3.81,0,0,0,1.91,2.65,3.14,3.14,0,0,0,3.49-.3,4.38,4.38,0,0,0,1.74-3.67c0-.35-.16-.4-.49-.31a4.73,4.73,0,0,0-3,2.23c-.13.25-.27.49-.45.81a4.85,4.85,0,0,0-2.36-3.82c-.41-.23-.58-.17-.71.27-.05.17.1.59-.36.42v1.69C399,16.86,399,16.73,399.16,16.82Z" style="fill:#c1ccd6"/><path d="M402,25c2.44.37,4.4-1.81,4.11-4.51-.06-.55-.21-.67-.73-.44a4.78,4.78,0,0,0-2.75,3.18c-.07,0-.12,0-.12,0-.11-.25-.2-.52-.33-.76A4,4,0,0,0,399,20v2.7c0-.06,0-.18.15-.1a.24.24,0,0,1,.12.1A3.56,3.56,0,0,0,402,25Z" style="fill:#c1ccd6"/><path d="M467.2,20.24a4.86,4.86,0,0,0-2.5,3.42,4.88,4.88,0,0,0-2.8-3.55c-.49-.23-.67-.18-.75.39A4.11,4.11,0,0,0,463.82,25c1.67.48,3.3-.43,4.17-2.31.06-.14,0-.51.35-.34V20A1.66,1.66,0,0,0,467.2,20.24Z" style="fill:#c1ccd6"/><path d="M461.13,5.82c.79.45.87.4.95-.48A4.58,4.58,0,0,0,459.46.41c-.1-.06-.6,0-.26-.41h-.84c0,.19,0,.38,0,.58C458.4,2.8,459.07,4.67,461.13,5.82Z" style="fill:#c1ccd6"/><path d="M405.42,6.06c.3.17.71-.21,1-.42C408.52,4.3,409,2.29,408.81,0h-.68l.08,0,0,0c-.09.25-.34.29-.53.38a4.46,4.46,0,0,0-2.57,4.45C405.16,5.32,405.08,5.88,405.42,6.06Z" style="fill:#c1ccd6"/><path d="M451,31.16c-.07-4.37,0-8.74,0-13.1,0-.31,0-.62-.05-.93a3.07,3.07,0,0,0-3.11-2.94c-.45,0-.9,0-1.35,0-.78-.05-1.79.35-2.28-.17s-.1-1.51-.14-2.29c0-.42,0-.85,0-1.27a3.13,3.13,0,0,0-3.47-3.2H426.72c-2.35,0-3.62,1.37-3.48,3.75,0,.82-.07,1.63,0,2.45,0,.61-.2.76-.77.74-1,0-2,0-3,0a3.12,3.12,0,0,0-3.21,3.37q0,7.05,0,14.1a3.16,3.16,0,0,0,3.36,3.4c1,0,2,0,2.95,0,.49,0,.64.16.63.64,0,1,0,2.08,0,3.12A3.05,3.05,0,0,0,426.09,42a67,67,0,0,0,7.76,0,69.12,69.12,0,0,0,7.34,0A2.94,2.94,0,0,0,444,39.11a26.42,26.42,0,0,0,.06-3.21c0-.72.23-.92.92-.87s1.46,0,2.19,0C449.66,35.23,451.07,33.66,451,31.16Zm-2.62.4c0,.72-.27.93-1,.92-1.75,0-3.49,0-5.24,0-.57,0-.78.13-.76.74,0,1.69,0,3.38,0,5.07,0,1.12,0,1.15-1.13,1.15l-8,0c-1.83,0-3.66-.07-5.49,0-.84,0-1.08-.34-1.07-1.1,0-1.61,0-3.21,0-4.82,0-.8-.12-1.13-1-1.08-1.63.09-3.27,0-4.9,0-.73,0-1-.24-1-1q0-6.89,0-13.77c0-.7.25-1,1-1,1.74,0,3.49,0,5.23,0,.54,0,.75-.13.72-.7,0-1,0-2,0-3a1.05,1.05,0,0,1-.47-.24,1.05,1.05,0,0,0,.47.24c0-.76,0-1.52,0-2.27s.24-1,.95-1c1.63,0,3.26,0,4.89,0,.7,0,.76.26.76.83,0,5.46,0,10.92,0,16.37,0,.31,0,.62,0,.93,0,.93,0,1.86,0,2.79,0,1.88,0,1.86,1.85,1.79.5,0,.73-.19.71-.69s0-1.24,0-1.86c0-3.57,0-7.15,0-10.73,0-2.9,0-5.8,0-8.7,0-.53.11-.74.69-.73,1.66,0,3.33,0,5,0,.71,0,.93.28.92,1,0,1.74,0,3.49,0,5.23,0,.66.19.8.81.79,1.71,0,3.43,0,5.15,0,.72,0,1,.23,1,1Q448.38,24.63,448.41,31.56Z" style="fill:#c1ccd6"/><path d="M457,41.45c.12-.45.19-.68.24-.91a4.75,4.75,0,0,0-.62-3.65c-.22-.37-.38-.36-.68-.06a4.17,4.17,0,0,0-.83,4.75.7.7,0,0,1-.17,1,52.42,52.42,0,0,1-4.85,4.33,6.28,6.28,0,0,0-1.47,1.16c-.23.31.49.63.49,1.09,0,0,0,0-.06.05h.67l-.07,0-.05,0c.34-.53,1-.7,1.36-1.15a36.77,36.77,0,0,0,5-4.43,1,1,0,0,1,1.16-.37,4,4,0,0,0,4.73-2.73A4.9,4.9,0,0,0,457,41.45Z" style="fill:#c1ccd6"/><path d="M405,34.63a3.26,3.26,0,0,0,2.66-2.52,4.4,4.4,0,0,0-.13-2.73c-.34-1-.5-1-1.2-.28a5.47,5.47,0,0,0-1.5,3.67,5,5,0,0,0-3.43-2.13c-.64-.11-1,0-.75.75a5.2,5.2,0,0,0,.77,1.67A3.57,3.57,0,0,0,405,34.63Z" style="fill:#c1ccd6"/><path d="M463.83,35.74a5.18,5.18,0,0,0-3.9,1.43,4.92,4.92,0,0,0-.11-2.53c-.27-.75-.55-1.92-1.27-1.88s-1,1.2-1.14,2A3.41,3.41,0,0,0,461.52,39a4.23,4.23,0,0,0,2.82-2.48C464.62,36,464.45,35.78,463.83,35.74Z" style="fill:#c1ccd6"/><path d="M407.07,39.16a3.34,3.34,0,0,0,2.84-2.83,4.36,4.36,0,0,0-.77-3.28c-.32-.5-.54-.49-.9,0a5.71,5.71,0,0,0-1,4,5.48,5.48,0,0,0-3.11-1.3c-.46,0-1.09-.19-1.33.23s.22.83.45,1.21A4,4,0,0,0,407.07,39.16Z" style="fill:#c1ccd6"/><path d="M404.12,29.76c2.2-.6,3.18-3.32,2.26-5.46-.17-.38-.36-.21-.57-.07a4.86,4.86,0,0,0-2.18,4.07,5,5,0,0,0-2.25-2.39c-.57-.26-1.35-.78-1.76-.39s0,1.22.22,1.82A3.66,3.66,0,0,0,404.12,29.76Z" style="fill:#c1ccd6"/><path d="M467.18,25.48a4.94,4.94,0,0,0-3.5,2.67,4.94,4.94,0,0,0-2.16-3.87c-.31-.23-.47-.3-.66.15a4.27,4.27,0,0,0,1,4.58,3.24,3.24,0,0,0,3.77.44,4.43,4.43,0,0,0,2.17-3.67C467.71,25.3,467.46,25.42,467.18,25.48Z" style="fill:#c1ccd6"/><path d="M459,6.34c-.28,0-.58-.1-.51.39.32,2.43,2.89,4.29,5.1,3.3a4,4,0,0,0,1.25-5.93,4.65,4.65,0,0,0-1.94,4.38c-.33,0-.37-.25-.48-.39A4.59,4.59,0,0,0,459,6.34Z" style="fill:#c1ccd6"/><path d="M404.21,10.22c2,.51,4.28-1.18,4.6-3.52.06-.48-.26-.41-.54-.38a4.86,4.86,0,0,0-3.82,2.31c-.1-2.25-.54-3.3-1.68-4.28-.22-.18-.37-.35-.58,0C400.83,6.66,401.85,9.63,404.21,10.22Z" style="fill:#c1ccd6"/><path d="M464.05,13.26a5,5,0,0,0-3.62-2.35c-.36-.06-.57-.05-.56.42a4.22,4.22,0,0,0,3.38,3.72,3.09,3.09,0,0,0,3-1.29,4.21,4.21,0,0,0,.44-4.17c-.19-.53-.39-.53-.81-.18A5.24,5.24,0,0,0,464.05,13.26Z" style="fill:#c1ccd6"/><path d="M402,14.68a3.4,3.4,0,0,0,3.92-.5,4.72,4.72,0,0,0,1.48-2.78c.09-.47-.1-.59-.56-.52a5.1,5.1,0,0,0-3.66,2.41,4.84,4.84,0,0,0-1.11-3.14c-.34-.4-.71-1.07-1.18-1s-.55.9-.66,1.43A3.87,3.87,0,0,0,402,14.68Z" style="fill:#c1ccd6"/><path d="M466,30.64a5,5,0,0,0-3.64,2.26,4.94,4.94,0,0,0-1.76-4.08c-.19-.16-.37-.41-.59,0-1.16,2.06-.47,4.89,1.75,5.69,2,.74,4.37-.81,4.87-3.2C466.73,30.68,466.53,30.55,466,30.64Z" style="fill:#c1ccd6"/><path d="M464.87,18.45c-.27-.48-.39-.73-.53-1a4.61,4.61,0,0,0-3-2.15c-.23-.07-.44-.15-.46.23a4.34,4.34,0,0,0,1.47,3.53,3.21,3.21,0,0,0,3.38.66,4.09,4.09,0,0,0,2.17-4.87c-.17-.58-.38-.56-.81-.27A4.79,4.79,0,0,0,464.87,18.45Z" style="fill:#c1ccd6"/><path d="M423.87,21.82h-.08c-.43,0-.61.2-.6.62v2.18c0,.34,0,.68,0,1,0,2-.33,1.73,1.88,1.77.53,0,.7-.22.69-.7,0-1,0-2.07,0-3.11C425.73,21.56,426.07,21.84,423.87,21.82Z" style="fill:#c1ccd6"/><path d="M444,24.61v-1.1c0-1.92.27-1.67-1.8-1.7-.55,0-.76.19-.75.73,0,1,0,2.09,0,3.13,0,2-.27,1.68,1.75,1.74.58,0,.83-.17.8-.77S444,25.29,444,24.61Z" style="fill:#c1ccd6"/><path d="M253.08,44.07c-1.56,0-3.12,0-4.69,0-2.24,0-2.85-.6-3-2.81-.07,0-.19,0-.22.06-3.05,4.65-11.85,4.71-15.12-1.55a14,14,0,0,1-.08-13.4,9.74,9.74,0,0,1,12.16-4.55,7.5,7.5,0,0,1,2.93,2.06c0-1.87,0-3.53,0-5.19,0-1-.76-1-1.46-1-1,.11-1.37-.18-1.25-1.21s-.46-2.61.22-3.29,2.17-.16,3.29-.2a21.5,21.5,0,0,1,2.41,0,2.22,2.22,0,0,1,2.3,2.23c.09,1,.07,1.94.07,2.91v19c0,2.14,0,2.14,2.17,2.19.17,0,.34,0,.51,0v4.32Zm-7.85-11.35a8,8,0,0,0-.78-3.47,5.19,5.19,0,0,0-9.49-.18,8.86,8.86,0,0,0,.14,8.17A4.77,4.77,0,0,0,239.62,40a5,5,0,0,0,4.65-2.77A9.1,9.1,0,0,0,245.23,32.72Z" style="fill:#c1ccd6"/><path d="M167,45.1c0-.65-.52-.45-.84-.53A17.55,17.55,0,0,1,155.49,37c-.54-.81-.42-1.17.43-1.61,1.61-.84,3.17-1.78,4.72-2.72.55-.33.85-.31,1.19.3,2.73,4.92,9.78,5.69,13.91,3.7A7.35,7.35,0,0,0,179,33.59c.45-.78.26-1-.61-1-3.39,0-6.77,0-10.15,0-.92,0-1.27-.19-1.22-1.18.09-1.52.07-3.05,0-4.57,0-.8.27-1,1-1,6.09,0,12.17,0,18.26,0,.55,0,1,0,1,.77,0,3.41-.17,6.76-1.72,9.89a14.88,14.88,0,0,1-10.09,8,1,1,0,0,0-.82.55Z" style="fill:#c1ccd6"/><path d="M173.9,10.33c-.09.67.5.47.8.55a17.73,17.73,0,0,1,10.07,7.23c.61.89.74,1.44-.42,2A44.46,44.46,0,0,0,180,22.63c-.61.37-.88.26-1.3-.28-4.55-5.88-12.44-5.76-16.92.27-.4.54-.65.58-1.19.25-1.55-.94-3.12-1.86-4.72-2.71-.74-.4-.83-.75-.38-1.46A17.45,17.45,0,0,1,166,10.88a1.06,1.06,0,0,0,.83-.55Z" style="fill:#c1ccd6"/><path d="M153.34,22.51a1.78,1.78,0,0,1,1.53.26c2.4,1.41,4.83,2.79,7.23,4.19,1.18.69,1.18,1,0,1.71-2.41,1.4-4.83,2.78-7.23,4.2a2.3,2.3,0,0,1-1.53.3Z" style="fill:#c1ccd6"/><path d="M253.08,44.07l.26-.24v.25Z" style="fill:#c1ccd6"/><path d="M203.55,44.64c-10.22,0-16-8.7-12.17-16.72,2.81-5.91,10.45-8.38,16.77-5.41a11.5,11.5,0,0,1,5.58,15.33A11.32,11.32,0,0,1,203.55,44.64ZM195.9,33a6.64,6.64,0,1,0,13.26,0,6.66,6.66,0,0,0-6.66-7C198.7,26,195.88,29,195.9,33Z" style="fill:#c1ccd6"/><path d="M224.12,27.05c0,3.59,0,7.18,0,10.77,0,1.19.33,1.81,1.57,1.64.89-.13,1.21.19,1.1,1.09-.13,1.16.5,2.71-.25,3.38s-2.17.16-3.31.19h-1.14c-2.91,0-3.53-.63-3.53-3.6v-21c0-1.61-.09-1.74-1.73-1.7-.86,0-1.09-.26-1-1.07.1-1.17-.48-2.7.21-3.42s2.24-.16,3.41-.22c.59,0,1.18,0,1.77,0,2.07,0,2.91.87,2.93,3C224.14,19.7,224.12,23.38,224.12,27.05Z" style="fill:#c1ccd6"/><path d="M329.51,37.74a7.11,7.11,0,0,0,6-2.8l-2.25-2.13a4.24,4.24,0,0,1-3.62,1.9c-2.84,0-4.77-2.19-4.77-5.26s1.93-5.22,4.77-5.22a4.17,4.17,0,0,1,3.62,1.82L335.55,24a7,7,0,0,0-6-2.81,7.91,7.91,0,0,0-8.13,8.26,7.93,7.93,0,0,0,8.13,8.29Zm12.06-.39V26.61a5.38,5.38,0,0,1,4.08-2.12,4.41,4.41,0,0,1,1,.1v-3.4a6.83,6.83,0,0,0-5.12,2.68V21.58h-3.43V37.35Zm9.17-17.7a2.12,2.12,0,1,0-2.12-2.12A2.12,2.12,0,0,0,350.74,19.65Zm1.7,17.7V21.58H349V37.35Zm9.41.39c4.25,0,6.56-2.12,6.56-4.93,0-6.27-9.53-4.18-9.53-7,0-1.11,1.11-2,2.9-2a6.42,6.42,0,0,1,4.67,1.89l1.44-2.41a9,9,0,0,0-6.11-2.19c-4,0-6.2,2.19-6.2,4.77,0,6.07,9.54,3.85,9.54,6.95C365.12,34.15,364,35,362,35a8.07,8.07,0,0,1-5.32-2.19l-1.57,2.45a9.55,9.55,0,0,0,6.76,2.48Zm18,0a6.32,6.32,0,0,1-5.06-2.57v8.19h-3.43V21.58h3.43v2.16a6.27,6.27,0,0,1,5.06-2.55c4.08,0,7,3.07,7,8.26S384,37.74,379.88,37.74Zm-1-3c2.71,0,4.47-2.19,4.47-5.26s-1.76-5.22-4.47-5.22a5.12,5.12,0,0,0-4.05,2.09v6.23A5.14,5.14,0,0,0,378.87,34.71Z" style="fill:#c1ccd6;fill-rule:evenodd"/><path d="M283.27,39.52l6.47,6.87,5-8.14,13.38-1.48L306,13.26l-38.66,4.27L269.5,41Z" style="fill:#c1ccd6;fill-rule:evenodd"/></svg>