<svg id="Camada_1" data-name="Camada 1" xmlns="http://www.w3.org/2000/svg" viewBox="0 0 512 512"><title>icon</title><path d="M512.25,262.41V249.59a12.8,12.8,0,0,0-12.81-12.81H275.22v-32h57.66a25.63,25.63,0,0,0,25.62-25.63V76.63A25.63,25.63,0,0,0,332.88,51H179.13A25.64,25.64,0,0,0,153.5,76.63V179.12a25.64,25.64,0,0,0,25.63,25.63h57.65v32H12.56A12.8,12.8,0,0,0-.25,249.59v12.82a12.8,12.8,0,0,0,12.81,12.81H95.84v32H51a25.63,25.63,0,0,0-25.62,25.63V435.37A25.63,25.63,0,0,0,51,461H179.13a25.63,25.63,0,0,0,25.62-25.63V332.88a25.63,25.63,0,0,0-25.62-25.63H134.28v-32H377.72v32H332.88a25.64,25.64,0,0,0-25.63,25.63V435.37A25.64,25.64,0,0,0,332.88,461H461a25.63,25.63,0,0,0,25.62-25.63V332.88A25.63,25.63,0,0,0,461,307.25H416.16v-32h83.28A12.8,12.8,0,0,0,512.25,262.41ZM204.75,153.5V102.25h102.5V153.5ZM153.5,409.75H76.63V358.5H153.5Zm281.88,0H358.5V358.5h76.88Z" style="fill:#fff"/></svg>