<?xml version="1.0" encoding="utf-8"?>
<!-- Generator: Adobe Illustrator 23.0.1, SVG Export Plug-In . SVG Version: 6.00 Build 0)  -->
<svg version="1.0" id="Camada_1" xmlns="http://www.w3.org/2000/svg" xmlns:xlink="http://www.w3.org/1999/xlink" x="0px" y="0px"
	 viewBox="0 0 512 512" style="enable-background:new 0 0 512 512;" xml:space="preserve">
<style type="text/css">
	.st0{fill:#25D366;}
	.st1{fill-rule:evenodd;clip-rule:evenodd;fill:#FFFFFF;}
</style>
<g>
	<path id="background_2_" class="st0" d="M256,512L256,512C114.6,512,0,397.4,0,256v0C0,114.6,114.6,0,256,0h0
		c141.4,0,256,114.6,256,256v0C512,397.4,397.4,512,256,512z"/>
	<g id="WA_Logo_3_">
		<g>
			<path class="st1" d="M366.9,146.4c-29.4-29.4-68.5-45.6-110.1-45.7c-85.8,0-155.7,69.8-155.7,155.7c0,27.4,7.2,54.2,20.8,77.8
				l-22.1,80.7l82.5-21.7c22.7,12.4,48.4,18.9,74.4,19h0.1c0,0,0,0,0,0c85.8,0,155.7-69.9,155.7-155.7
				C412.5,214.9,396.3,175.8,366.9,146.4z M256.7,385.9L256.7,385.9c-23.3,0-46.1-6.2-65.9-18l-4.7-2.8l-49,12.8l13.1-47.8l-3.1-4.9
				c-13-20.6-19.8-44.4-19.8-68.9c0-71.4,58.1-129.4,129.5-129.4c34.6,0,67.1,13.5,91.5,38c24.4,24.5,37.9,57,37.9,91.6
				C386.1,327.9,328.1,385.9,256.7,385.9z M327.7,289c-3.9-1.9-23-11.4-26.6-12.7c-3.6-1.3-6.2-1.9-8.8,1.9
				c-2.6,3.9-10,12.7-12.3,15.3c-2.3,2.6-4.5,2.9-8.4,1c-3.9-1.9-16.4-6.1-31.3-19.3c-11.6-10.3-19.4-23.1-21.6-27
				c-2.3-3.9-0.2-6,1.7-7.9c1.8-1.7,3.9-4.5,5.8-6.8c1.9-2.3,2.6-3.9,3.9-6.5c1.3-2.6,0.6-4.9-0.3-6.8c-1-1.9-8.8-21.1-12-28.9
				c-3.2-7.6-6.4-6.6-8.8-6.7c-2.3-0.1-4.9-0.1-7.5-0.1c-2.6,0-6.8,1-10.4,4.9c-3.6,3.9-13.6,13.3-13.6,32.5
				c0,19.2,13.9,37.7,15.9,40.2c1.9,2.6,27.4,41.9,66.5,58.7c9.3,4,16.5,6.4,22.2,8.2c9.3,3,17.8,2.5,24.5,1.5
				c7.5-1.1,23-9.4,26.3-18.5c3.2-9.1,3.2-16.9,2.3-18.5C334.2,291.9,331.6,290.9,327.7,289z"/>
		</g>
	</g>
</g>
</svg>
